<svg width="70" height="58" viewBox="0 0 70 58" fill="none" xmlns="http://www.w3.org/2000/svg">
<path d="M68.3334 29H48.3334L41.6667 39H28.3334L21.6667 29H1.66675M68.3334 29V49C68.3334 50.7681 67.631 52.4638 66.3808 53.714C65.1306 54.9643 63.4349 55.6667 61.6668 55.6667H8.33342C6.5653 55.6667 4.86961 54.9643 3.61937 53.714C2.36913 52.4638 1.66675 50.7681 1.66675 49V29M68.3334 29L56.8334 6.03334C56.2815 4.92263 55.4307 3.98791 54.3766 3.33428C53.3225 2.68064 52.107 2.334 50.8668 2.33334H19.1334C17.8931 2.334 16.6776 2.68064 15.6236 3.33428C14.5695 3.98791 13.7187 4.92263 13.1667 6.03334L1.66675 29" stroke="#CDCFD0" stroke-width="3" stroke-linecap="round" stroke-linejoin="round"/>
</svg>
